#!OML:ASF F:\VICON\USERDATA\INSTALL\rory3\rory3.ASF
:FULLY-SPECIFIED
:DEGREES
21
root 2.76975 17.3188 -43.2509 14.8932 -0.660999 1.75141
lowerback -5.41871 -2.02518 -3.01367
upperback -3.45878 -2.57329 0.955109
thorax -0.350387 -1.23804 2.5387
lowerneck -17.3117 -3.6772 -7.474
upperneck 20.8601 -4.30953 5.22402
head 9.75286 -2.00851 2.48375
rclavicle 2.71341e-014 1.59028e-014
rhumerus -39.7063 2.65088 -86.0504
rradius 30.6205
rwrist 2.11376
rhand -27.016 -43.156
rfingers 7.12502
rthumb -0.435526 -73.1353
lclavicle 2.71341e-014 1.59028e-014
lhumerus -29.5107 -11.8128 91.074
lradius 32.1223
lwrist 8.78147
lhand -32.7236 -28.3768
lfingers 7.12502
lthumb -5.94737 1.51978
rfemur -46.838 10.055 13.2988
rtibia 27.7071
rfoot -2.27312 -16.317
rtoes -2.63362
lfemur 0.811403 -3.98771 -26.5766
ltibia 12.7091
lfoot -17.9651 6.80062
ltoes -17.4847
22
root 2.72973 17.3381 -43.1085 14.7542 -0.15106 1.73981
lowerback -5.43055 -2.19859 -3.14927
upperback -4.11249 -2.8054 1.0241
thorax -0.994379 -1.33209 2.68851
lowerneck -14.9197 -3.46807 -7.58015
upperneck 20.4288 -4.18236 5.32338
head 9.15381 -1.98286 2.57129
rclavicle 2.74447e-014 2.18663e-014
rhumerus -41.3059 2.66341 -86.0838
rradius 30.7645
rwrist 2.13282
rhand -26.1733 -45.1119
rfingers 7.12502
rthumb 0.378324 -75.0913
lclavicle 2.74447e-014 2.18663e-014
lhumerus -31.1593 -11.4541 91.2258
lradius 32.1023
lwrist 8.80693
lhand -33.0929 -28.9737
lfingers 7.12502
lthumb -6.30385 0.912538
rfemur -46.3934 10.3466 13.3498
rtibia 28.3163
rfoot -2.55854 -17.0916
rtoes -1.08413
lfemur 1.26008 -3.96384 -26.1908
ltibia 13.0215
lfoot -17.4155 6.09073
ltoes -14.5119
23
root 2.70483 17.3397 -42.9838 14.6513 -0.538566 1.26506
lowerback -5.62567 -1.98425 -2.64512
upperback -3.42425 -2.52918 1.10089
thorax -0.210952 -1.22245 2.47659
lowerneck -17.3494 -3.61263 -7.53144
upperneck 20.9675 -4.23185 5.33575
head 9.79599 -1.96443 2.54446
rclavicle 6.28657e-015 -2.78299e-015
rhumerus -39.8873 2.6469 -86.1069
rradius 30.7455
rwrist 2.38164
rhand -26.9907 -44.6236
rfingers 7.12502
rthumb -0.411071 -74.603
lclavicle 6.28657e-015 -2.78299e-015
lhumerus -29.711 -11.2325 90.7802
lradius 31.8596
lwrist 8.95597
lhand -33.1086 -29.0917
lfingers 7.12502
lthumb -6.31909 0.794052
rfemur -46.2433 10.4653 14.2063
rtibia 28.9324
rfoot -2.91606 -16.5179
rtoes -0.483263
lfemur 1.66412 -3.6062 -25.718
ltibia 13.2318
lfoot -16.793 6.15882
ltoes -16.2675
24
root 2.66465 17.3545 -42.8331 14.4649 0.0227676 0.957662
lowerback -5.0479 -2.06764 -2.28391
upperback -3.79993 -2.67121 1.16616
thorax -0.922629 -1.2846 2.36386
lowerneck -17.2924 -3.62355 -7.48859
upperneck 21.5461 -4.2592 5.22196
head 9.98944 -1.99049 2.49973
rclavicle 1.40392e-015 4.77083e-015
rhumerus -40.5424 2.81478 -86.3607
rradius 30.8746
rwrist 2.38282
rhand -27.6066 -44.9564
rfingers 7.12502
rthumb -1.00599 -74.9337
lclavicle 1.40392e-015 4.77083e-015
lhumerus -30.6079 -10.9571 90.7251
lradius 32.0463
lwrist 8.7925
lhand -33.0467 -29.1104
lfingers 7.12502
lthumb -6.25928 0.777081
rfemur -45.6389 10.4806 14.8156
rtibia 29.3757
rfoot -2.95892 -16.5854
rtoes -0.550759
lfemur 1.72414 -3.73968 -25.0252
ltibia 14.3896
lfoot -16.7825 5.69264
ltoes -17.7484
25
root 2.62873 17.3679 -42.6871 14.3956 0.35356 0.741326
lowerback -4.87123 -2.19527 -2.08594
upperback -4.21123 -2.85294 1.29467
thorax -1.43779 -1.36726 2.39482
lowerneck -16.7618 -3.45613 -7.51255
upperneck 21.8843 -4.03299 5.06397
head 9.9912 -1.91657 2.48764
rclavicle 2.84262e-014 5.96354e-015
rhumerus -41.2275 3.23549 -86.5891
rradius 30.9038
rwrist 2.2324
rhand -27.7019 -45.6191
rfingers 7.12502
rthumb -1.09804 -75.5961
lclavicle 2.84262e-014 5.96354e-015
lhumerus -31.771 -10.3176 90.6947
lradius 32.4751
lwrist 8.58747
lhand -33.1556 -26.6911
lfingers 7.12502
lthumb -6.36446 3.1933
rfemur -45.2352 10.5669 15.2683
rtibia 29.7908
rfoot -2.65289 -16.3908
rtoes -1.61667
lfemur 1.70617 -3.76661 -24.4722
ltibia 15.3854
lfoot -16.4931 4.85999
ltoes -18.1097
26
root 2.60548 17.3512 -42.6003 15.154 -1.33976 0.133595
lowerback -6.21738 -1.41495 -1.58928
upperback -4.10422 -1.81173 1.08823
thorax -0.658938 -0.867972 1.90882
lowerneck -16.136 -3.60491 -7.20158
upperneck 21.4046 -4.37712 5.15295
head 9.72171 -2.04681 2.42054
rclavicle 5.60324e-015 -1.39149e-015
rhumerus -40.818 2.26209 -86.5877
rradius 31.2094
rwrist 3.3611
rhand -26.7106 -46.827
rfingers 7.12502
rthumb -0.140551 -76.8067
lclavicle 5.60324e-015 -1.39149e-015
lhumerus -31.6217 -10.8802 90.3907
lradius 32.8058
lwrist 8.73589
lhand -33.9149 -26.4714
lfingers 7.12502
lthumb -7.09741 3.38959
rfemur -46.2364 10.8817 16.1577
rtibia 30.0153
rfoot -1.93049 -14.3043
rtoes -2.50399
lfemur 0.379496 -2.68258 -24.21
ltibia 16.8955
lfoot -16.1196 4.71276
ltoes -17.8849
27
root 2.55163 17.3845 -42.4253 14.375 0.41952 0.194058
lowerback -5.84718 -2.35746 -1.66578
upperback -4.00459 -3.06909 1.52965
thorax -0.678485 -1.49287 2.34403
lowerneck -16.1924 -3.28453 -7.86368
upperneck 21.8434 -3.75397 5.11918
head 9.85845 -1.81913 2.60846
rclavicle -1.33558e-014 7.7526e-015
rhumerus -40.7971 3.70497 -86.674
rradius 31.1468
rwrist 3.96084
rhand -27.4125 -43.5943
rfingers 7.12502
rthumb -0.818464 -73.5724
lclavicle -1.33558e-014 7.7526e-015
lhumerus -32.2789 -9.27806 90.2135
lradius 32.9716
lwrist 8.71673
lhand -33.9027 -27.491
lfingers 7.12502
lthumb -7.0856 2.37042
rfemur -44.5752 10.6319 16.4277
rtibia 30.252
rfoot -2.54824 -15.4311
rtoes -1.14636
lfemur 0.871747 -3.45157 -23.3938
ltibia 18.3981
lfoot -15.9491 3.22762
ltoes -19.2211
28
root 2.53403 17.3734 -42.3103 15.1971 -1.62791 -0.427493
lowerback -6.69761 -1.54183 -1.20573
upperback -4.69301 -1.99494 1.45606
thorax -0.993099 -0.956218 2.05941
lowerneck -14.5397 -3.19942 -7.80129
upperneck 21.7278 -3.78724 5.13771
head 9.50801 -1.85105 2.61136
rclavicle -2.60905e-015 -8.94531e-015
rhumerus -41.9058 3.79688 -86.9881
rradius 31.4193
rwrist 3.22618
rhand -27.6442 -43.2505
rfingers 7.12502
rthumb -1.04226 -73.2277
lclavicle -2.60905e-015 -8.94531e-015
lhumerus -33.4688 -9.40744 90.2488
lradius 33.0964
lwrist 8.9274
lhand -34.0752 -27.6348
lfingers 7.12502
lthumb -7.25219 2.22093
rfemur -45.4942 11.0679 17.3443
rtibia 30.407
rfoot -2.11855 -13.4439
rtoes -1.60154
lfemur -0.453569 -1.93031 -23.2671
ltibia 19.9266
lfoot -15.3355 3.33328
ltoes -20.1211
29
root 2.49872 17.3896 -42.1606 15.2383 -1.50322 -0.565421
lowerback -7.51245 -1.49875 -1.04577
upperback -4.42489 -1.94193 1.41046
thorax -0.274684 -0.94092 1.89935
lowerneck -14.8656 -3.25304 -7.63686
upperneck 21.8865 -3.86114 5.0488
head 9.62502 -1.87766 2.54217
rclavicle 8.55395e-015 -4.77083e-015
rhumerus -41.6035 4.09878 -87.4608
rradius 31.4265
rwrist 1.88367
rhand -25.8437 -47.3365
rfingers 7.12502
rthumb 0.696737 -77.3151
lclavicle 8.55395e-015 -4.77083e-015
lhumerus -33.2325 -9.44418 90.0016
lradius 33.1733
lwrist 9.1173
lhand -33.7068 -27.0836
lfingers 7.12502
lthumb -6.89654 2.78409
rfemur -45.0948 11.0873 17.7288
rtibia 30.6996
rfoot -2.42921 -13.491
rtoes -0.95289
lfemur -0.78639 -1.61334 -22.8329
ltibia 21.2144
lfoot -14.6874 2.36421
ltoes -21.5922
30
root 2.45416 17.415 -42.0014 14.8365 -0.485512 -0.563719
lowerback -6.88151 -1.85445 -0.988826
upperback -4.55677 -2.42127 1.52212
thorax -0.737343 -1.1765 1.97088
lowerneck -15.5331 -3.29742 -7.84302
upperneck 22.7188 -3.83936 5.02116
head 10.05 -1.88497 2.57408
rclavicle 3.10104e-014 3.97569e-016
rhumerus -41.7197 4.61356 -87.7703
rradius 31.3577
rwrist 1.40484
rhand -27.9463 -45.55
rfingers 7.12502
rthumb -1.33402 -75.5256
lclavicle 3.10104e-014 3.97569e-016
lhumerus -33.7231 -9.10657 89.9168
lradius 33.2842
lwrist 9.36079
lhand -32.5546 -28.1905
lfingers 7.12502
lthumb -5.78419 1.71055
rfemur -44.0083 10.9596 18.0212
rtibia 30.9724
rfoot -2.95157 -14.349
rtoes 0.263286
lfemur -0.819649 -1.82217 -22.1723
ltibia 22.7968
lfoot -14.1346 0.965576
ltoes -21.9737
31
root 2.42887 17.4196 -41.8783 14.9288 -0.943394 -0.898954
lowerback -7.09107 -1.56062 -0.568107
upperback -4.53845 -2.05269 1.45842
thorax -0.634143 -1.00169 1.68668
lowerneck -15.89 -3.34755 -7.84703
upperneck 23.1405 -3.91445 5.09932
head 10.277 -1.90886 2.59483
rclavicle 8.83349e-015 -4.57205e-015
rhumerus -41.4256 4.42908 -87.8809
rradius 31.3774
rwrist 1.36748
rhand -28.0068 -45.0451
rfingers 7.12502
rthumb -1.3925 -75.0203
lclavicle 8.83349e-015 -4.57205e-015
lhumerus -33.737 -9.44178 89.822
lradius 33.2448
lwrist 9.84326
lhand -33.0152 -27.8718
lfingers 7.12502
lthumb -6.22885 2.01661
rfemur -43.8678 10.8948 18.7207
rtibia 31.3008
rfoot -3.26115 -13.6827
rtoes 0.488589
lfemur -1.43184 -1.05141 -21.7489
ltibia 24.2699
lfoot -13.0628 0.226795
ltoes -23.1698
